<?xml version="1.0" encoding="utf-8"?>
<!-- Generator: Adobe Illustrator 21.1.0, SVG Export Plug-In . SVG Version: 6.00 Build 0)  -->
<svg version="1.1" id="Layer_1" xmlns="http://www.w3.org/2000/svg" xmlns:xlink="http://www.w3.org/1999/xlink" x="0px" y="0px"
	 viewBox="0 0 353 314" style="enable-background:new 0 0 353 314;" xml:space="preserve">
<style type="text/css">
	.st0{fill:#EF5229;}
</style>
<g id="xLeNsT.tif">
	<g>
		<path class="st0" d="M176.1,243.9c-49.6,0-90-40.4-90-90c0-49.6,40.5-89.9,90.1-89.8c49.4,0.1,89.6,40.3,89.7,89.7
			C266,203.5,225.7,243.9,176.1,243.9z M148.9,156.7c0.6,10.1,1.1,20.9,1.9,31.7c0.5,5.7,4.2,7.9,9.4,5.7
			c19.7-8.1,37.6-19.1,54.2-32.4c4.4-3.5,4.3-7.6-0.2-11.2c-16.3-13.1-34-23.9-53.3-32c-6.1-2.5-9.8-0.5-10.3,6.1
			C149.9,135,149.5,145.5,148.9,156.7z"/>
	</g>
</g>
</svg>
